<svg width="16" height="16" viewBox="0 0 16 16" fill="none" xmlns="http://www.w3.org/2000/svg">
<path d="M4 0C3.45 0 3 0.45 3 1V15C3 15.55 3.45 16 4 16H14C14.55 16 15 15.55 15 15V4L11 0H4Z" fill="#E2E5E7"/>
<path d="M12 4H15L11 0V3C11 3.55 11.45 4 12 4Z" fill="#B0B7BD"/>
<path d="M15 7L12 4H15V7Z" fill="#CAD1D8"/>
<path d="M13 13C13 13.275 12.775 13.5 12.5 13.5H1.5C1.225 13.5 1 13.275 1 13V8C1 7.725 1.225 7.5 1.5 7.5H12.5C12.775 7.5 13 7.725 13 8V13Z" fill="#F15642"/>
<path d="M3.1795 9.47327C3.1795 9.34127 3.2835 9.19727 3.451 9.19727H4.3745C4.8945 9.19727 5.3625 9.54527 5.3625 10.2123C5.3625 10.8443 4.8945 11.1963 4.3745 11.1963H3.707V11.7243C3.707 11.9003 3.595 11.9998 3.451 11.9998C3.319 11.9998 3.1795 11.9003 3.1795 11.7243V9.47327ZM3.707 9.70077V10.6968H4.3745C4.6425 10.6968 4.8545 10.4603 4.8545 10.2123C4.8545 9.93277 4.6425 9.70077 4.3745 9.70077H3.707Z" fill="white"/>
<path d="M6.14551 11.9999C6.01351 11.9999 5.86951 11.9279 5.86951 11.7524V9.4814C5.86951 9.3379 6.01351 9.2334 6.14551 9.2334H7.06101C8.88801 9.2334 8.84801 11.9999 7.09701 11.9999H6.14551ZM6.39751 9.7214V11.5124H7.06101C8.14051 11.5124 8.18851 9.7214 7.06101 9.7214H6.39751Z" fill="white"/>
<path d="M9.49602 9.75292V10.3884H10.5155C10.6595 10.3884 10.8035 10.5324 10.8035 10.6719C10.8035 10.8039 10.6595 10.9119 10.5155 10.9119H9.49602V11.7514C9.49602 11.8914 9.39652 11.9989 9.25652 11.9989C9.08052 11.9989 8.97302 11.8914 8.97302 11.7514V9.48042C8.97302 9.33692 9.08102 9.23242 9.25652 9.23242H10.66C10.836 9.23242 10.94 9.33692 10.94 9.48042C10.94 9.60842 10.836 9.75242 10.66 9.75242H9.49602V9.75292Z" fill="white"/>
<path d="M12.5 13.5H3V14H12.5C12.775 14 13 13.775 13 13.5V13C13 13.275 12.775 13.5 12.5 13.5Z" fill="#CAD1D8"/>
</svg>
