<svg width="16" height="16" viewBox="0 0 16 16" fill="none" xmlns="http://www.w3.org/2000/svg">
<g clip-path="url(#clip0_4531_4)">
<path d="M9.44379 0H3.47191C2.89691 0 2.42816 0.46875 2.42816 1.04688V14.9563C2.42816 15.5344 2.89691 16 3.47504 16.0031H13.9594C14.5375 16.0031 15.0032 15.5344 15.0063 14.9563L14.975 4.625L9.44379 0Z" fill="#4EB3F2"/>
<path d="M9.44379 0L9.42816 4.51562C9.42816 4.51562 9.44379 4.625 9.53754 4.625H14.975L9.44379 0Z" fill="#0077CC"/>
<path d="M1.42189 7.70898H11.9719C12.2063 7.70898 12.3969 7.89961 12.3969 8.13398V12.8465C12.3969 13.0809 12.2063 13.2715 11.9719 13.2715H1.42189C1.18751 13.2715 0.996887 13.0809 0.996887 12.8465V8.13398C0.996887 7.89961 1.18751 7.70898 1.42189 7.70898Z" fill="#0077CC"/>
<path d="M1.64062 9.34668H2.71563C2.92813 9.34668 3.1 9.3748 3.22813 9.43418C3.35313 9.4873 3.46562 9.5748 3.55 9.68105C3.6375 9.79043 3.7 9.91855 3.73438 10.0561C3.77188 10.2029 3.79375 10.3561 3.79063 10.5092C3.79063 10.7592 3.7625 10.9529 3.70625 11.0904C3.65312 11.2217 3.57187 11.3404 3.46875 11.4373C3.37812 11.5248 3.26562 11.5873 3.14062 11.6217C3 11.6623 2.85625 11.6811 2.70937 11.6842H1.64062V9.34668ZM2.3625 9.87793V11.1561H2.54063C2.69063 11.1561 2.8 11.1404 2.8625 11.1061C2.93125 11.0654 2.98438 11.0061 3.0125 10.9311C3.04688 10.8467 3.06562 10.7123 3.06562 10.5248C3.06562 10.2779 3.025 10.1061 2.94375 10.0154C2.8625 9.9248 2.72813 9.87793 2.54063 9.87793H2.3625Z" fill="white"/>
<path d="M4.08124 10.5182C4.08124 10.1369 4.18749 9.84004 4.39999 9.62441C4.61249 9.41191 4.90936 9.30566 5.29061 9.30566C5.68124 9.30566 5.98124 9.40879 6.19061 9.61816C6.39999 9.82754 6.50624 10.1182 6.50624 10.4963C6.50624 10.7713 6.45936 10.9932 6.36874 11.1682C6.27811 11.34 6.14061 11.4838 5.96874 11.5775C5.79374 11.6744 5.57811 11.7244 5.31874 11.7244C5.05311 11.7244 4.83436 11.6838 4.66249 11.5994C4.48436 11.5119 4.33749 11.3713 4.24061 11.1994C4.13749 11.0213 4.08124 10.7932 4.08124 10.5182ZM4.80624 10.5244C4.80624 10.7619 4.84999 10.9307 4.93749 11.0338C5.02499 11.1369 5.14374 11.19 5.29686 11.19C5.45311 11.19 5.57186 11.14 5.65936 11.0369C5.74374 10.9369 5.78749 10.7557 5.78749 10.4932C5.78749 10.2713 5.74374 10.1119 5.65311 10.0088C5.56561 9.90879 5.44374 9.85566 5.29061 9.85566C5.15624 9.85254 5.02499 9.90879 4.94061 10.0119C4.84999 10.115 4.80624 10.2838 4.80624 10.5244Z" fill="white"/>
<path d="M8.45624 10.7309L9.09061 10.9215C9.05624 11.084 8.98749 11.234 8.89061 11.3652C8.79999 11.484 8.68436 11.5746 8.54999 11.634C8.41561 11.6934 8.24061 11.7246 8.03124 11.7246C7.77811 11.7246 7.56874 11.6871 7.40936 11.6152C7.24999 11.5434 7.10936 11.4121 6.99061 11.2246C6.87499 11.0371 6.81561 10.7996 6.81561 10.509C6.81561 10.1215 6.91874 9.82461 7.12499 9.61523C7.33124 9.40586 7.62186 9.30273 7.99999 9.30273C8.29374 9.30273 8.52811 9.36211 8.69374 9.48086C8.86249 9.59961 8.98749 9.78398 9.06874 10.0309L8.43124 10.1715C8.41561 10.1152 8.39374 10.0621 8.36249 10.0152C8.32499 9.96211 8.27186 9.91836 8.21249 9.88711C8.00936 9.79023 7.76561 9.85586 7.64061 10.0402C7.57499 10.1371 7.54061 10.2902 7.54061 10.5027C7.54061 10.7621 7.58124 10.9402 7.65936 11.0371C7.73749 11.134 7.84999 11.1809 7.99061 11.184C8.12811 11.184 8.23436 11.1465 8.30311 11.0684C8.37186 10.9934 8.42186 10.8809 8.45624 10.7309Z" fill="white"/>
<path d="M9.28125 9.34668H10.0781L10.4906 10.0654L10.8938 9.34668H11.6812L10.9531 10.4811L11.75 11.6873H10.9375L10.475 10.9373L10.0125 11.6873H9.20312L10.0094 10.4686L9.28125 9.34668Z" fill="white"/>
</g>
<defs>
<clipPath id="clip0_4531_4">
<rect width="16" height="16" fill="white"/>
</clipPath>
</defs>
</svg>
