<svg width="16" height="16" viewBox="0 0 16 16" fill="none" xmlns="http://www.w3.org/2000/svg">
<path d="M2.66699 2.5H5C5.09052 2.5 5.16699 2.57647 5.16699 2.66699C5.16703 3.55082 5.30782 4.40081 5.56934 5.19531V5.19629C5.5893 5.25981 5.57555 5.32386 5.52637 5.37305L3.80273 7.09668L3.96777 7.41992C4.97615 9.40166 6.59995 11.0172 8.5791 12.0312L8.90234 12.1973L9.16016 11.9404L10.6182 10.4824C10.6616 10.4412 10.7063 10.4268 10.7471 10.4268C10.7643 10.4268 10.7743 10.428 10.7793 10.4287C10.7842 10.4294 10.779 10.4284 10.7676 10.4238L10.7822 10.4297L10.7969 10.4346C11.5938 10.6978 12.4531 10.8398 13.333 10.8398C13.4235 10.8398 13.5 10.9163 13.5 11.0068V13.333C13.5 13.4235 13.4235 13.5 13.333 13.5C7.34941 13.4998 2.50018 8.65059 2.5 2.66699C2.5 2.57647 2.57647 2.5 2.66699 2.5ZM2.85449 3.36719C2.91746 4.29078 3.09939 5.18046 3.38672 6.02148L3.64648 6.78125L4.21387 6.21387L5.01367 5.41309L5.22266 5.20508L5.14062 4.9209C4.99107 4.40366 4.89612 3.85925 4.8584 3.2998L4.82715 2.83301H2.81836L2.85449 3.36719ZM13.167 11.1797L12.7002 11.1475C12.1479 11.1098 11.6023 11.0157 11.0693 10.8652L10.7881 10.7861L10.5811 10.9912L9.78125 11.7852L9.20215 12.3594L9.97656 12.6143C10.8211 12.8934 11.709 13.0757 12.6328 13.1387L13.167 13.1748V11.1797Z" fill="#404040" stroke="#6A7282"/>
</svg>
