<svg width="16" height="16" viewBox="0 0 16 16" fill="none" xmlns="http://www.w3.org/2000/svg">
<path d="M14.1663 11.9998C14.1663 12.4569 13.7905 12.8337 13.3333 12.8337H2.66632C2.20928 12.8336 1.83331 12.4568 1.83331 11.9998V4.06812L2.40167 4.42456L7.73468 7.75757L8.00031 7.92261L8.26495 7.75757L13.598 4.42456L14.1663 4.06812V11.9998ZM13.0687 4.90894L7.99933 8.0769L2.93195 4.90894L2.16632 4.4314V12.4998H13.8333V4.4314L13.0687 4.90894ZM2.66632 3.16675H13.3333C13.6031 3.16675 13.8437 3.29845 13.9964 3.49976H2.00323C2.15587 3.29844 2.3966 3.16685 2.66632 3.16675Z" fill="#404040" stroke="#6A7282"/>
</svg>
