<svg width="16" height="16" viewBox="0 0 16 16" fill="none" xmlns="http://www.w3.org/2000/svg">
<path d="M8.02679 1.83325C9.66097 1.83329 11.1928 2.46772 12.3452 3.62622L12.3461 3.6272C13.4988 4.77985 14.1332 6.31219 14.1332 7.94653C14.1332 11.3103 11.3906 14.0529 8.02679 14.053C7.00451 14.053 5.99978 13.7948 5.1059 13.3079L4.93109 13.2122L4.73969 13.2629L2.0766 13.9622L2.78265 11.3713L2.83734 11.1711L2.73383 10.9915C2.20346 10.0664 1.92035 9.01825 1.92035 7.9397C1.92047 4.57594 4.66301 1.83325 8.02679 1.83325ZM8.01996 1.94653C4.71723 1.94654 2.02691 4.63699 2.02679 7.9397C2.02679 8.92638 2.27137 9.89612 2.73187 10.761L2.94281 11.1252L2.94672 11.1311L2.95844 11.1497L2.46429 12.9612L2.23578 13.7971L3.07367 13.5764L4.94965 13.0833L4.96918 13.095L4.97211 13.0969C5.89517 13.642 6.94998 13.9329 8.02679 13.9329C11.2252 13.9328 13.8527 11.415 14.0004 8.2522L14.0063 7.94458C14.0058 6.34701 13.3873 4.84027 12.2534 3.7063C11.1261 2.57246 9.61896 1.94653 8.01996 1.94653ZM5.68695 5.38696H5.92719C6.04485 5.68025 6.30764 6.31922 6.40765 6.54907C6.38514 6.59239 6.37614 6.60911 6.35394 6.63501C6.24598 6.76098 6.18931 6.83671 6.13324 6.89282C6.10157 6.92449 5.97443 7.04235 5.91156 7.21704C5.83254 7.43692 5.87698 7.65271 5.97699 7.8313L5.9809 7.83716L5.9848 7.84399C6.08841 8.01668 6.44726 8.61222 7.00043 9.10571C7.52067 9.57061 7.99822 9.80789 8.26019 9.92407L8.44379 10.0042C8.56014 10.063 8.729 10.1275 8.92523 10.1047C9.15301 10.0783 9.3084 9.94937 9.4057 9.8313L9.40472 9.83032C9.48431 9.73866 9.68867 9.49697 9.83734 9.30396C10.0979 9.42595 10.6665 9.70214 10.8237 9.77759C10.8394 9.78515 10.8549 9.79222 10.8696 9.79907C10.8577 9.88839 10.8353 10.0037 10.7895 10.1301L10.7875 10.137C10.7875 10.137 10.7839 10.1464 10.7719 10.1643C10.76 10.182 10.7419 10.2043 10.7162 10.2307C10.6634 10.2852 10.5904 10.3447 10.5034 10.4006C10.3638 10.4903 10.229 10.5472 10.143 10.5745L10.0776 10.5911C9.82548 10.6262 9.55112 10.6378 9.26019 10.5442L9.25238 10.5413C9.02318 10.4712 8.73692 10.3784 8.36859 10.2161L8.36469 10.2141C6.86195 9.56573 5.8501 8.02627 5.75531 7.89185L5.7514 7.88599L5.74652 7.88013L5.62543 7.70728C5.56692 7.61854 5.4954 7.50162 5.42621 7.36548C5.28406 7.08567 5.17328 6.76691 5.17328 6.4729C5.17339 5.8767 5.46034 5.60331 5.61371 5.43091L5.61469 5.43188C5.63965 5.40475 5.65894 5.39467 5.6684 5.39087C5.67927 5.38655 5.68693 5.38698 5.68695 5.38696Z" fill="#404040" stroke="#6A7282"/>
</svg>
